<?xml version="1.0" encoding="UTF-8"?>
<svg version="1.1" xmlns="http://www.w3.org/2000/svg" width="1080" height="1080">
<path d="M0 0 C356.4 0 712.8 0 1080 0 C1080 356.4 1080 712.8 1080 1080 C723.6 1080 367.2 1080 0 1080 C0 723.6 0 367.2 0 0 Z " fill="#191919" transform="translate(0,0)"/>
<path d="M0 0 C269.28 0 538.56 0 816 0 C816 49.17 816 98.34 816 149 C613.71 149 411.42 149 203 149 C203 169.46 203 189.92 203 211 C368.33 211 533.66 211 704 211 C704 236.74 704 262.48 704 289 C538.67 289 373.34 289 203 289 C203 309.46 203 329.92 203 351 C405.95 351 608.9 351 818 351 C818 400.17 818 449.34 818 500 C548.06 500 278.12 500 0 500 C0 335 0 170 0 0 Z " fill="#21C670" transform="translate(131,290)"/>
</svg>
